<?xml version="1.0" standalone="no"?><!DOCTYPE svg PUBLIC "-//W3C//DTD SVG 1.1//EN" "http://www.w3.org/Graphics/SVG/1.1/DTD/svg11.dtd"><svg t="1714142379621" class="icon" viewBox="0 0 1024 1024" version="1.1" xmlns="http://www.w3.org/2000/svg" p-id="4880" xmlns:xlink="http://www.w3.org/1999/xlink" width="200" height="200"><path d="M512 0c282.794667 0 512 229.248 512 512 0 282.794667-229.205333 512-512 512-282.752 0-512-229.230933-512-512C0 229.248 229.248 0 512 0z" fill="#29BCE1" p-id="4881"></path><path d="M325.632 162.133333h372.736L733.866667 197.316267v637.9008L698.368 870.4H325.632L290.133333 835.217067V197.316267L325.632 162.133333zM662.869333 800.042667v-567.552H361.130667v567.552H662.869333z" fill="#FFFFFF" p-id="4882"></path><path d="M546.491733 421.546667H622.933333v69.102933H401.066667V421.546667h76.4416V341.333333h68.983466v80.213334z m0 197.973333H622.933333v-69.0944H401.066667v69.085867h76.4416V699.733333h68.983466v-80.213333z" fill="#FFFFFF" p-id="4883"></path></svg>