<?xml version="1.0" standalone="no"?>
<!DOCTYPE svg PUBLIC "-//W3C//DTD SVG 20010904//EN"
 "http://www.w3.org/TR/2001/REC-SVG-20010904/DTD/svg10.dtd">
<svg version="1.0" xmlns="http://www.w3.org/2000/svg"
 width="512.000000pt" height="512.000000pt" viewBox="0 0 512.000000 512.000000"
 preserveAspectRatio="xMidYMid meet">
<metadata>
Created by potrace 1.14, written by Peter Selinger 2001-2017
</metadata>
<g transform="translate(0.000000,512.000000) scale(0.100000,-0.100000)"
fill="#000000" stroke="none">
<path d="M1740 4470 c0 -11 -5 -20 -11 -20 -6 0 -9 -6 -6 -13 3 -8 -3 -20 -13
-27 -10 -7 -16 -19 -13 -27 3 -7 0 -13 -6 -13 -6 0 -11 -11 -11 -25 0 -14 -4
-25 -9 -25 -6 0 -8 -9 -6 -20 2 -11 0 -18 -6 -15 -5 4 -9 -7 -9 -24 0 -16 -4
-31 -10 -33 -5 -1 -11 -12 -13 -23 -2 -11 -9 -33 -16 -48 -6 -16 -9 -32 -6
-37 3 -5 0 -12 -6 -15 -5 -4 -8 -14 -5 -22 3 -8 1 -11 -4 -8 -6 3 -10 3 -11
-2 -3 -36 -44 -154 -51 -148 -3 3 -5 -2 -5 -12 0 -36 -3 -44 -14 -38 -6 4 -9
1 -8 -6 2 -8 -2 -23 -8 -34 -6 -11 -12 -24 -13 -30 -1 -5 -6 -9 -12 -7 -5 1
-7 -2 -3 -8 11 -18 -80 -130 -105 -130 -5 0 -10 -4 -10 -8 0 -9 -78 -37 -92
-34 -5 1 -8 -2 -8 -6 0 -5 -6 -9 -12 -10 -7 0 -44 -11 -83 -23 -38 -11 -80
-22 -92 -22 -13 -1 -23 -5 -23 -10 0 -4 -4 -6 -10 -2 -5 3 -25 -1 -44 -9 -19
-8 -37 -12 -40 -8 -3 3 -6 0 -6 -7 0 -7 -4 -9 -10 -6 -5 3 -10 -1 -10 -10 0
-8 -7 -18 -16 -22 -13 -5 -12 -9 7 -29 12 -13 31 -24 41 -24 10 0 18 -4 18
-10 0 -5 11 -10 24 -10 14 0 27 -4 30 -8 3 -5 30 -15 61 -22 30 -7 55 -17 55
-22 0 -5 4 -7 8 -4 5 3 21 -2 36 -10 16 -7 36 -14 46 -14 10 0 21 -7 24 -16 4
-9 9 -14 13 -11 6 7 94 -41 105 -58 5 -6 8 -6 8 0 0 5 7 -1 16 -13 8 -12 22
-22 31 -22 9 0 13 -3 10 -7 -4 -3 0 -15 10 -25 9 -10 13 -18 9 -18 -4 0 -1
-10 6 -22 7 -13 11 -29 10 -35 -2 -7 1 -13 5 -13 8 0 13 -23 16 -67 0 -7 5
-13 10 -13 5 0 7 -9 4 -20 -3 -11 -1 -22 3 -25 5 -3 7 -13 5 -23 -1 -9 1 -22
6 -28 5 -6 10 -27 11 -47 2 -20 5 -37 8 -37 3 0 6 -17 8 -37 2 -32 6 -55 15
-98 2 -5 6 -15 10 -22 4 -6 1 -14 -5 -16 -10 -4 -10 -6 0 -6 7 -1 10 -5 7 -11
-3 -5 -3 -16 2 -22 7 -12 11 -34 14 -78 1 -8 6 -21 12 -28 5 -7 7 -15 4 -19
-4 -3 -2 -12 3 -19 6 -6 10 -16 9 -20 -4 -14 23 -64 33 -64 5 0 6 -6 2 -12 -4
-7 2 -4 13 8 18 18 37 59 35 74 0 3 4 11 10 18 6 6 7 12 3 12 -4 0 -3 6 2 13
6 6 9 20 8 30 -2 9 1 17 6 17 5 0 9 5 9 11 0 5 -6 7 -12 4 -7 -4 -6 -1 2 7 8
7 16 24 18 38 4 31 10 65 12 65 2 0 7 19 15 58 3 15 12 47 19 70 19 57 30 101
28 110 -1 4 2 7 6 7 4 0 8 10 9 22 1 11 6 24 10 27 8 5 34 59 35 71 1 3 8 10
17 17 9 7 12 13 7 13 -6 0 -1 7 10 15 10 8 15 15 11 15 -4 0 -2 6 5 14 7 8 16
12 21 9 4 -2 7 1 7 8 0 13 38 49 52 49 5 0 6 4 3 10 -3 5 6 12 20 16 14 3 25
9 25 13 0 4 16 13 35 21 19 8 35 18 35 24 0 5 3 7 6 3 4 -3 19 0 34 8 15 8 30
11 34 8 3 -4 6 -1 6 6 0 7 7 11 15 8 8 -4 17 -2 21 4 3 6 12 8 19 5 7 -2 17 0
23 6 6 6 31 11 55 12 25 0 43 4 41 8 -3 4 4 7 13 7 30 0 98 13 103 20 3 3 14
8 25 11 11 2 599 6 1308 7 l1287 3 0 25 0 25 -1300 0 c-1227 0 -1300 1 -1309
18 -6 9 -11 13 -11 9 0 -5 -13 1 -29 12 -16 12 -34 21 -40 21 -6 0 -11 5 -11
10 0 6 -6 10 -14 10 -8 0 -21 6 -28 13 -7 7 -16 14 -21 15 -14 3 -122 75 -125
83 -2 5 -8 9 -14 9 -5 0 -22 12 -37 28 -15 15 -41 38 -57 52 -17 14 -50 50
-74 80 -25 30 -49 58 -55 62 -5 4 -6 8 -2 8 4 0 -1 10 -13 22 -11 12 -20 27
-20 34 0 6 -7 17 -15 24 -8 7 -12 16 -9 21 3 5 0 9 -5 9 -6 0 -11 3 -10 8 2
15 -14 52 -22 52 -5 0 -9 14 -9 30 0 17 -4 30 -8 30 -8 0 -10 7 -14 50 -1 11
-7 20 -12 20 -5 0 -7 2 -4 5 3 3 -3 38 -14 78 -11 40 -21 86 -24 104 -2 17 -8
43 -13 56 -6 14 -7 28 -4 31 4 3 1 6 -6 6 -7 0 -10 3 -7 8 6 9 -15 36 -32 40
-6 1 -12 -7 -12 -18z"/>
<path d="M2580 4395 c-5 -6 -7 -15 -3 -18 3 -4 1 -7 -7 -7 -10 0 -10 -3 0 -15
6 -8 8 -20 4 -26 -5 -9 -2 -10 9 -6 10 3 17 3 17 -2 0 -4 7 -8 15 -8 8 0 15 4
15 9 0 4 8 8 17 8 9 0 13 3 10 7 -4 3 -2 12 3 19 8 8 6 16 -4 27 -8 8 -13 17
-9 20 3 3 -9 5 -26 5 -17 -1 -36 -6 -41 -13z"/>
<path d="M4277 4153 c-3 -3 -4 -10 -1 -17 3 -8 -15 -17 -48 -25 -29 -8 -66
-20 -82 -28 -25 -13 -27 -17 -13 -25 21 -11 54 -6 94 15 40 21 65 22 35 1 -12
-8 -20 -19 -17 -24 3 -5 -3 -15 -13 -22 -10 -7 -21 -21 -25 -30 -5 -14 -1 -18
15 -18 21 0 21 -1 -5 -28 -33 -34 -34 -42 -4 -42 21 -1 20 -3 -10 -29 -41 -34
-43 -55 -5 -49 15 3 35 9 45 13 17 7 18 4 13 -29 -8 -47 -25 -74 -53 -81 -13
-3 -23 -10 -23 -15 0 -14 43 -12 62 3 17 13 38 69 38 100 0 11 8 29 18 40 12
15 14 21 5 24 -7 3 -13 11 -13 19 0 9 4 13 8 10 16 -10 71 33 78 60 8 30 -18
58 -47 51 -12 -3 -16 2 -16 19 0 18 8 26 33 34 45 15 48 50 4 50 -18 0 -30 5
-30 13 0 13 -33 21 -43 10z m56 -160 c3 -5 1 -17 -4 -28 -6 -17 -8 -17 -8 -2
-1 9 -8 17 -17 17 -8 0 -12 5 -9 10 7 12 32 13 38 3z m-81 -65 c-7 -7 -12 -8
-12 -2 0 6 3 14 7 17 3 4 9 5 12 2 2 -3 -1 -11 -7 -17z"/>
<path d="M2733 4139 c-18 -5 -35 -18 -38 -29 -4 -11 -11 -17 -17 -14 -14 9
-28 -15 -28 -47 0 -43 20 -86 45 -97 33 -15 31 -24 -11 -45 -35 -17 -36 -17
-54 5 -24 30 -29 23 -21 -32 5 -37 10 -45 27 -45 12 -1 35 -13 52 -27 l32 -26
-29 -7 c-16 -3 -36 -14 -46 -25 -15 -17 -15 -19 4 -25 12 -3 26 -3 32 1 8 5 9
3 4 -6 -6 -10 -4 -12 11 -6 10 4 35 10 54 13 19 3 43 10 53 15 18 9 24 38 7
38 -6 0 -4 10 4 23 24 35 10 64 -38 80 l-41 14 37 22 c36 22 53 45 43 61 -3 4
4 28 15 51 25 56 25 74 0 99 -21 21 -46 24 -97 9z m59 -61 c-3 -14 -8 -15 -22
-6 -14 9 -25 9 -46 0 -30 -15 -42 -9 -25 11 7 9 28 14 55 13 35 -1 42 -4 38
-18z m-72 -52 c0 -3 -4 -8 -10 -11 -5 -3 -10 -1 -10 4 0 6 5 11 10 11 6 0 10
-2 10 -4z m50 -5 c0 -5 -7 -12 -16 -15 -14 -5 -15 -4 -4 9 14 17 20 19 20 6z
m0 -71 c-8 -5 -19 -10 -25 -10 -5 0 -3 5 5 10 8 5 20 10 25 10 6 0 3 -5 -5
-10z"/>
<path d="M3193 4108 c-23 -11 -38 -37 -27 -47 4 -3 9 0 11 7 3 6 9 12 14 12
17 0 -2 -27 -27 -39 -34 -15 -54 -14 -54 4 0 60 -61 -75 -63 -139 -2 -67 18
-62 48 11 54 130 79 123 70 -21 l-6 -89 28 6 c15 4 38 9 51 13 34 10 27 -13
-18 -57 -44 -43 -51 -69 -20 -69 11 0 20 3 20 8 0 7 54 35 76 38 6 1 23 8 38
16 24 13 26 16 12 27 -12 10 -23 11 -46 3 -27 -10 -29 -9 -21 7 6 10 17 23 25
31 9 7 16 23 16 35 0 31 -42 39 -74 14 -13 -11 -36 -19 -50 -19 l-25 0 29 50
c31 53 31 75 -2 86 -13 4 -17 9 -10 16 7 7 19 6 38 -3 23 -12 28 -20 28 -53 1
-49 15 -54 52 -22 24 21 26 27 14 35 -8 6 -14 27 -15 50 -1 36 2 42 28 51 37
13 37 13 37 -2 0 -6 -10 -22 -22 -35 -19 -20 -19 -23 -4 -23 28 0 74 28 81 50
14 44 -20 53 -110 31 -31 -8 -42 -7 -50 3 -15 20 -47 26 -72 14z"/>
<path d="M3730 4100 c-8 -5 -8 -9 3 -13 14 -5 14 -13 1 -67 -10 -45 -11 -66
-3 -82 11 -20 11 -20 32 0 21 19 78 51 94 53 18 3 33 12 33 20 0 15 -40 31
-53 21 -7 -5 -23 -13 -35 -17 -20 -6 -23 -4 -22 17 4 48 0 66 -19 71 -10 2
-24 1 -31 -3z"/>
<path d="M3623 4051 c-6 -10 -9 -28 -7 -38 6 -23 -33 -59 -73 -69 -38 -10 -26
-24 20 -24 36 0 43 -3 43 -20 0 -14 -5 -19 -14 -15 -12 4 -13 -1 -8 -26 13
-68 52 -75 43 -8 -6 47 -1 51 11 7 5 -19 15 -32 26 -34 16 -2 18 3 13 33 l-6
36 29 -28 c17 -16 30 -31 30 -35 0 -3 -16 -14 -35 -24 -39 -21 -45 -41 -15
-51 22 -7 70 18 70 36 0 6 7 6 20 -1 12 -6 40 -13 63 -16 23 -3 59 -9 80 -14
84 -18 43 38 -52 70 -57 20 -70 28 -66 41 12 36 13 56 4 70 -5 8 -9 11 -10 7
-3 -14 -6 -23 -17 -50 l-11 -28 -43 23 c-29 15 -42 29 -40 40 2 9 -2 17 -8 17
-5 0 -10 -6 -10 -14 0 -16 -18 -31 -26 -23 -8 8 21 59 45 81 24 22 27 36 8 36
-7 0 -18 9 -25 20 -15 25 -24 25 -39 1z"/>
<path d="M2751 3288 c2 -13 0 -29 -5 -36 -12 -20 -4 -22 33 -6 l34 14 -23 25
c-29 31 -42 32 -39 3z"/>
<path d="M4200 3239 c-24 -16 -50 -29 -57 -29 -22 0 -14 -16 14 -29 25 -11 30
-10 50 13 12 14 24 26 27 26 2 0 -8 -35 -24 -77 -15 -43 -29 -82 -30 -88 -1
-5 -8 -25 -16 -44 -8 -18 -14 -38 -14 -44 0 -6 -7 -18 -16 -28 -20 -22 -10
-62 14 -57 10 2 17 8 18 13 1 20 18 71 36 113 19 41 80 112 97 112 5 0 7 -19
4 -42 -5 -32 -2 -44 12 -54 10 -8 17 -15 14 -17 -2 -2 -16 -11 -31 -20 -33
-21 -38 -57 -7 -57 19 0 19 -1 5 -22 -21 -29 -20 -48 0 -48 14 0 15 -2 3 -17
-10 -11 -1 -9 28 8 49 27 54 39 18 39 -30 0 -30 0 -5 52 27 55 26 92 -2 111
-14 10 -19 19 -13 24 14 11 13 75 -2 80 -6 2 -31 -13 -54 -34 -29 -26 -40 -32
-35 -18 5 11 14 39 21 61 7 23 19 51 27 63 11 18 11 23 -2 31 -22 14 -30 12
-80 -21z"/>
<path d="M2740 3217 l-75 -31 -1 -40 c0 -41 -2 -54 -28 -167 -17 -71 -16 -65
-16 -84 0 -8 -22 -24 -50 -36 -65 -28 -64 -41 3 -33 65 8 79 19 74 58 -2 17
-1 40 3 51 4 11 11 43 14 70 8 56 12 63 28 47 8 -8 16 -7 32 3 20 14 22 13 21
-8 -2 -34 -15 -56 -30 -51 -19 8 -7 -36 16 -58 15 -15 16 -23 7 -55 -5 -21
-15 -44 -22 -52 -8 -12 -8 -13 1 -7 7 4 24 27 39 52 28 48 38 56 26 22 -5 -13
-7 -29 -6 -35 1 -7 2 -19 3 -27 2 -22 37 -29 79 -15 59 19 68 30 33 45 -24 10
-29 17 -27 43 2 31 -8 42 -31 34 -17 -6 -16 -40 1 -50 7 -4 16 -18 20 -30 5
-16 2 -23 -13 -28 -33 -10 -42 3 -38 56 3 38 9 53 30 70 49 38 28 81 -35 74
-32 -4 -36 -3 -31 14 6 23 34 36 43 21 5 -8 14 -8 33 1 40 18 44 46 5 40 -17
-2 -7 18 12 24 23 7 27 25 5 25 -8 0 -15 6 -15 14 0 19 -30 29 -31 11 -3 -35
-15 -55 -32 -55 -8 0 -8 3 2 9 11 7 10 13 -4 35 -17 26 -41 26 -31 0 7 -17
-23 -47 -40 -40 -8 3 -14 1 -14 -4 0 -5 12 -10 26 -12 l26 -3 -32 -23 c-17
-13 -34 -21 -37 -18 -3 3 0 27 7 54 13 54 26 65 103 85 48 12 66 28 37 32 -8
2 -49 -11 -90 -28z m83 -222 c-5 -13 -23 -22 -23 -11 0 15 14 35 21 31 4 -3 6
-12 2 -20z"/>
<path d="M3725 3193 c5 -32 9 -76 11 -98 1 -22 5 -66 8 -99 10 -84 2 -100 -41
-93 -39 7 -77 37 -99 80 -16 31 -40 36 -48 10 -15 -50 -14 -73 5 -98 28 -35
49 -33 43 5 -6 32 10 41 21 13 3 -10 7 -20 7 -23 3 -16 67 -50 95 -50 59 0 65
24 58 207 -7 162 -17 203 -51 203 -14 0 -15 -8 -9 -57z"/>
<path d="M3302 3227 c-6 -7 -15 -25 -21 -40 -7 -17 -18 -27 -31 -27 -11 0 -20
-4 -20 -10 0 -5 7 -10 16 -10 18 0 17 -8 -6 -91 -16 -54 -9 -79 22 -79 21 0
20 -2 -9 -32 -37 -39 -44 -66 -21 -81 14 -9 23 -6 48 18 37 35 52 26 21 -15
l-22 -30 24 0 c30 0 87 53 87 81 0 13 -10 23 -30 31 l-31 10 25 32 c13 18 26
41 28 51 4 23 -37 47 -68 42 -21 -4 -21 -2 -9 32 9 27 20 38 43 45 37 10 39
17 12 41 -11 10 -20 24 -20 32 0 17 -24 17 -38 0z"/>
<path d="M3126 3145 c4 -17 2 -25 -7 -26 -17 -1 29 -17 52 -18 9 -1 19 6 23
14 7 20 -28 55 -54 55 -17 0 -19 -5 -14 -25z"/>
<path d="M3861 3049 c1 -24 7 -53 12 -64 20 -41 53 -47 67 -10 13 34 -5 79
-38 96 -15 7 -31 15 -35 17 -5 2 -8 -15 -6 -39z"/>
<path d="M3076 3072 c-6 -9 -3 -27 8 -62 5 -13 12 -58 15 -99 3 -41 11 -76 16
-78 6 -2 25 19 43 47 35 53 52 110 33 110 -6 0 -11 -6 -11 -12 -1 -17 -39 -62
-46 -55 -3 3 -9 32 -13 65 -6 55 -33 104 -45 84z"/>
<path d="M3870 2360 c-8 -5 -18 -6 -24 -3 -5 3 -6 1 -2 -5 4 -7 2 -12 -4 -12
-6 0 -9 -4 -6 -9 4 -5 1 -11 -4 -13 -6 -2 -8 -16 -4 -35 4 -18 10 -31 14 -28
4 3 10 -1 13 -9 6 -15 23 -16 46 -2 10 6 12 5 7 -2 -4 -8 -2 -10 8 -6 17 7 37
52 33 78 -4 21 -36 48 -48 41 -4 -3 -9 -1 -11 5 -2 6 -9 6 -18 0z"/>
<path d="M2680 2330 c0 -6 -4 -9 -9 -6 -8 5 -31 -42 -30 -61 1 -3 -4 -9 -10
-12 -6 -4 -12 -17 -14 -30 -2 -12 -10 -27 -17 -31 -8 -5 -11 -12 -8 -16 4 -3
-4 -26 -17 -50 -14 -24 -21 -44 -17 -44 4 0 2 -4 -3 -8 -6 -4 -23 -27 -39 -51
-36 -56 -42 -63 -90 -109 -21 -20 -56 -54 -77 -74 -21 -21 -39 -35 -39 -32 0
4 -6 1 -13 -5 -8 -6 -18 -7 -22 -3 -5 4 -5 2 -2 -4 5 -9 -47 -48 -66 -49 -4 0
-12 -7 -17 -15 -5 -8 -10 -11 -10 -6 0 5 -7 3 -15 -4 -8 -6 -19 -9 -25 -5 -6
4 -9 1 -8 -6 2 -7 -1 -13 -7 -14 -5 0 -20 -6 -31 -13 -12 -6 -24 -8 -28 -5 -3
3 -6 1 -6 -5 0 -7 -3 -11 -7 -10 -13 2 -61 -20 -68 -32 -3 -5 -11 -8 -16 -5
-5 4 -9 -1 -9 -10 0 -9 -4 -13 -10 -10 -11 7 -13 -15 -4 -39 3 -9 10 -13 15
-10 5 3 9 1 9 -5 0 -10 38 -27 53 -23 4 1 7 -3 7 -8 0 -5 3 -9 8 -8 4 1 20 -4
35 -10 16 -7 34 -12 40 -12 7 0 20 -7 30 -15 11 -7 25 -11 33 -8 8 3 14 0 14
-6 0 -6 6 -11 14 -11 7 0 30 -7 50 -15 20 -8 37 -14 39 -13 2 2 11 -5 21 -15
10 -9 22 -15 27 -12 5 4 9 -1 9 -9 0 -9 4 -15 9 -13 13 3 62 -53 56 -64 -4 -5
-1 -9 4 -9 6 0 11 -8 11 -18 0 -10 3 -22 8 -26 4 -4 8 -12 8 -17 1 -5 3 -11 4
-14 1 -3 3 -13 5 -22 1 -10 5 -26 9 -35 4 -9 5 -22 1 -28 -3 -5 -1 -10 5 -10
7 0 10 -7 7 -15 -4 -8 -2 -17 4 -21 6 -3 8 -12 5 -19 -2 -7 1 -18 7 -25 9 -10
9 -11 -1 -5 -11 6 -12 3 -3 -14 7 -12 14 -36 17 -54 8 -56 10 -66 17 -73 34
-34 34 -34 -1258 -34 l-1265 0 0 -25 0 -25 1275 0 c1233 0 1275 -1 1286 -19 8
-12 19 -16 33 -13 23 6 65 42 50 42 -5 0 -1 5 8 10 9 6 19 24 23 40 4 17 11
30 16 30 6 0 8 4 5 8 -3 5 6 27 20 51 13 24 24 50 24 58 0 8 5 11 10 8 6 -3
10 3 10 14 0 12 5 21 10 21 6 0 10 7 10 15 0 8 5 15 11 15 5 0 8 4 5 9 -3 5 1
11 9 15 8 3 15 15 15 26 0 12 5 18 10 15 6 -3 10 -2 10 4 0 19 138 150 164
157 15 3 33 16 41 28 9 11 19 20 23 19 13 -5 42 8 42 18 0 6 4 8 8 5 5 -3 19
4 30 15 13 11 22 15 22 8 0 -7 8 -5 20 6 11 10 20 15 20 11 0 -3 10 0 23 9 13
8 27 12 30 8 4 -3 7 -1 7 5 0 7 8 12 18 12 9 0 26 7 36 15 10 8 24 12 30 8 6
-3 8 -3 4 2 -4 4 -1 13 7 19 12 9 12 14 -3 31 -17 20 -121 73 -130 67 -3 -2
-8 1 -12 8 -4 6 -17 12 -28 13 -12 1 -22 4 -22 7 0 4 -16 12 -35 20 -19 8 -35
16 -35 19 0 4 -15 13 -32 21 -18 7 -42 22 -52 32 -11 10 -23 18 -28 18 -15 0
-118 94 -118 108 0 5 -7 13 -16 16 -8 3 -12 10 -9 16 3 5 2 10 -4 10 -6 0 -8
7 -5 15 4 8 2 15 -3 15 -5 0 -10 6 -11 13 -1 20 -7 41 -13 52 -4 6 -5 18 -4
28 2 9 -2 17 -8 17 -5 0 -8 3 -5 6 4 3 -2 34 -12 70 -10 35 -19 67 -20 69 -9
50 -14 65 -22 65 -5 0 -7 4 -4 9 10 15 -11 59 -34 71 -14 8 -20 8 -20 0z"/>
<path d="M840 2190 c0 -5 -3 -9 -7 -9 -23 4 -30 -4 -27 -28 1 -16 2 -34 3 -41
1 -7 5 -11 10 -8 5 4 11 1 13 -6 2 -6 16 -12 30 -12 15 -1 25 1 22 5 -2 4 3
10 12 13 8 3 12 10 9 16 -3 5 -2 10 3 10 12 0 10 32 -3 46 -15 15 -65 27 -65
14z"/>
<path d="M1356 1805 c4 -9 3 -15 -2 -13 -20 6 -59 -48 -58 -81 0 -34 41 -90
66 -92 7 0 25 -2 40 -3 15 -1 30 4 33 12 3 7 9 11 14 7 5 -3 12 4 16 15 3 11
10 20 14 20 10 0 7 60 -4 85 -10 24 -37 45 -47 39 -5 -3 -8 0 -8 6 0 6 -10 10
-22 9 -13 -2 -29 0 -35 4 -9 6 -11 3 -7 -8z"/>
<path d="M200 1152 c-21 -7 -60 -50 -60 -66 0 -7 11 -23 25 -36 32 -30 31 -32
-6 -49 -21 -9 -27 -17 -20 -24 7 -7 19 -4 38 9 15 10 34 19 42 20 8 2 18 9 22
16 6 8 9 1 9 -21 0 -34 0 -34 21 -15 11 10 16 20 10 22 -14 5 -14 14 1 49 16
40 17 52 7 59 -5 3 -9 0 -9 -5 0 -6 -12 -11 -26 -11 -16 0 -24 -5 -21 -12 2
-7 10 -12 16 -10 15 3 14 -10 -5 -36 -20 -29 -25 -28 -51 13 -23 34 -31 71
-14 61 11 -7 45 18 40 31 -2 5 -11 8 -19 5z"/>
<path d="M620 1147 c-13 -7 -31 -24 -39 -39 -15 -26 -14 -29 14 -58 25 -26 27
-33 15 -41 -8 -5 -26 -7 -40 -4 -14 2 -19 2 -12 -1 6 -3 12 -12 12 -20 0 -8 3
-14 6 -14 8 0 66 32 85 48 14 11 16 10 12 -13 -4 -18 -1 -25 10 -25 9 0 19 5
23 11 4 8 9 7 15 -2 6 -10 12 -9 28 5 12 11 21 14 21 8 0 -20 23 -13 53 16
l30 27 -5 -28 c-3 -15 -1 -30 4 -33 11 -7 38 14 38 30 0 6 -5 4 -10 -4 -7 -11
-10 -7 -10 17 0 43 -20 46 -52 9 -21 -23 -27 -27 -28 -14 0 12 -6 16 -17 12
-17 -5 -17 -5 0 6 9 6 17 18 17 27 0 14 -5 12 -27 -8 -16 -13 -38 -33 -50 -43
-22 -18 -22 -18 -17 9 3 16 9 36 14 46 17 30 13 51 -7 40 -10 -5 -27 -13 -38
-17 -20 -7 -20 -7 1 -13 l22 -6 -24 -35 c-14 -20 -24 -28 -24 -19 0 9 -9 26
-20 39 -19 22 -29 67 -12 56 11 -6 45 21 41 33 -3 7 -12 6 -29 -2z"/>
<path d="M1343 1152 c-14 -9 -33 -146 -22 -164 7 -11 26 57 21 75 -1 4 7 2 18
-5 16 -10 23 -9 46 12 l26 25 -7 -25 c-11 -35 -14 -80 -5 -80 4 0 13 26 20 58
24 104 21 112 -23 57 -15 -19 -32 -35 -37 -35 -11 0 -24 45 -22 73 1 19 1 19
-15 9z"/>
<path d="M1789 1143 c0 -5 -3 -17 -5 -28 -8 -32 -8 -125 0 -132 11 -12 26 20
15 33 -11 14 9 33 41 39 16 3 20 0 16 -13 -11 -35 -14 -72 -7 -72 8 0 28 73
37 140 5 32 3 42 -4 35 -10 -9 -18 -36 -21 -67 -1 -5 -15 -8 -32 -8 -30 0 -31
1 -24 40 4 26 3 40 -4 40 -6 0 -11 -3 -12 -7z"/>
<path d="M1646 1095 c-3 -9 0 -15 9 -15 8 0 15 7 15 15 0 8 -4 15 -9 15 -5 0
-11 -7 -15 -15z"/>
<path d="M1080 1081 c-8 -16 -6 -22 9 -31 16 -8 22 -6 31 9 8 16 6 22 -9 31
-16 8 -22 6 -31 -9z"/>
<path d="M1569 1050 c-28 -34 -34 -38 -42 -25 -8 15 -11 15 -30 -2 -12 -10 -9
-3 7 15 17 17 25 32 19 32 -20 0 -73 -51 -73 -71 0 -23 23 -25 40 -4 11 13 15
13 21 3 7 -10 12 -11 28 -1 17 11 21 10 26 -7 3 -10 1 -27 -6 -38 -7 -11 -9
-27 -5 -37 6 -16 8 -16 29 -3 27 18 34 60 13 78 -21 17 -20 32 4 63 11 14 16
28 11 32 -5 3 -24 -13 -42 -35z m12 -123 c-16 -16 -26 0 -10 19 9 11 15 12 17
4 2 -6 -1 -17 -7 -23z"/>
<path d="M2166 1045 c-20 -40 -41 -58 -27 -22 5 13 5 30 1 37 -7 11 -15 8 -38
-16 -25 -27 -30 -29 -39 -15 -9 14 -13 13 -31 -9 -21 -25 -21 -25 -17 -2 2 12
6 26 10 31 3 5 1 12 -4 16 -6 3 -17 -7 -25 -22 -12 -24 -12 -31 0 -47 12 -18
15 -18 31 -4 10 8 24 13 31 11 7 -3 24 5 38 18 19 18 24 19 24 7 0 -9 -5 -18
-11 -20 -5 -2 -7 -11 -4 -21 6 -15 9 -15 27 -2 12 8 32 12 48 8 15 -3 31 0 34
6 4 6 0 11 -11 11 -12 0 -19 7 -19 19 0 11 5 19 10 18 5 -1 12 6 14 16 7 31
-25 18 -42 -18z"/>
<path d="M312 1042 c-18 -18 -20 -27 -12 -42 6 -11 17 -20 25 -20 17 0 19 12
5 26 -8 8 -6 15 5 24 13 11 15 9 15 -14 0 -32 10 -33 40 -1 27 29 43 24 30
-10 -11 -29 9 -35 30 -10 9 10 9 15 1 15 -6 0 -10 3 -9 8 3 12 -13 52 -22 52
-4 0 -17 -15 -29 -32 l-21 -33 0 26 c0 36 -29 41 -58 11z"/>
<path d="M1710 1041 c-42 -36 -46 -37 -53 -9 -6 22 -6 22 -32 -6 -28 -30 -34
-46 -9 -25 13 10 17 10 24 -1 4 -7 16 -11 27 -8 10 3 24 -1 31 -8 11 -12 17
-11 38 2 29 20 25 31 -5 14 -29 -15 -29 13 0 34 12 8 20 19 18 25 -3 7 -20 -2
-39 -18z"/>
<path d="M1916 1045 c-23 -20 -26 -27 -16 -44 8 -17 17 -20 38 -15 42 10 40 8
33 65 -2 18 -31 15 -55 -6z m33 -31 c-17 -21 -31 -17 -19 6 6 11 15 18 21 14
6 -4 6 -11 -2 -20z"/>
<path d="M476 1035 c-29 -29 3 -61 33 -32 21 20 2 -32 -20 -57 -21 -22 -24
-36 -9 -36 5 0 23 20 40 45 17 25 29 45 26 45 -3 0 -1 11 4 25 8 20 6 25 -6
25 -8 0 -17 -6 -20 -14 -9 -23 -33 -28 -27 -5 6 23 0 24 -21 4z"/>
</g>
</svg>
